<svg width="94" height="31" viewBox="0 0 94 31" fill="none" xmlns="http://www.w3.org/2000/svg">
<path d="M8.39756 4.00318C8.39756 1.92016 8.76749 1.69293 11.357 1.38994V0.0643852H0V1.38994C2.58956 1.69293 2.95949 1.92016 2.95949 4.00318V26.0691C2.95949 28.1522 2.58956 28.2911 0 28.594V29.9196L19.9396 30.0079L21.2344 21.7011H19.9396C17.276 26.5868 16.0182 28.493 13.2067 28.493H11.616C9.3224 28.493 8.39756 27.9628 8.39756 25.9176V4.00318Z" fill="#010023"/>
<path d="M29.9374 9.20315H29.1235L22.6127 11.2862V12.0058L24.8323 13.3313V27.0917C24.8323 28.4173 24.2404 28.6445 22.5017 28.7581V30.0079H32.268V28.7581C30.5293 28.6445 29.9374 28.4173 29.9374 27.0917V9.20315ZM27.3108 6.93077C29.1235 6.93077 30.3443 5.52947 30.3443 3.9388C30.3443 2.31026 29.1235 0.946828 27.3108 0.946828C25.5352 0.946828 24.3144 2.31026 24.3144 3.9388C24.3144 5.52947 25.5352 6.93077 27.3108 6.93077Z" fill="#010023"/>
<path d="M40.3254 4.65839H39.2156C37.6248 7.15801 35.4422 9.2789 32.8897 10.453V11.324H35.1833V24.163C35.1833 28.4048 37.4029 30.0333 40.4364 30.0333C43.0999 30.0333 44.9496 28.6699 46.1334 26.7763L45.6895 26.0945C44.7646 26.8141 43.9508 27.155 42.9149 27.155C41.1762 27.155 40.3254 26.1703 40.3254 23.86V11.324H45.1346V9.58188H40.3254V4.65839Z" fill="#010023"/>
<path d="M51.2928 18.1033C51.2928 13.8994 52.9206 10.6423 55.7321 10.6423C57.8037 10.6423 58.4326 12.3087 58.4326 14.316C58.4326 14.9977 58.3586 15.5658 58.2846 16.1718H61.0962C61.873 15.7931 62.5019 14.8462 62.5019 13.6343C62.5019 10.7181 59.9864 9.20315 56.361 9.20315C50.516 9.20315 46.7796 13.9752 46.7796 20.3C46.7796 26.246 50.442 30.0333 55.3991 30.0333C59.1725 30.0333 61.91 27.9882 63.0568 23.86L62.4279 23.4813C61.2071 25.3371 59.5794 26.2839 57.2488 26.2839C53.5125 26.2839 51.2928 23.0647 51.2928 18.1033Z" fill="#010023"/>
<path d="M72.3243 27.0035C70.3636 27.0035 69.4758 25.6022 69.4758 23.6328C69.4758 21.5119 70.4376 20.6408 71.9914 20.0348L75.1728 18.7093V25.7916C74.137 26.5869 73.3971 27.0035 72.3243 27.0035ZM80.2779 15.4143C80.2779 10.9832 77.6884 9.20315 72.9532 9.20315C68.8469 9.20315 65.6655 10.8317 65.6655 13.9752C65.6655 15.225 66.2943 16.0203 67.2932 16.3612L70.3636 15.9446C70.1787 15.1114 70.0677 14.3539 70.0677 13.5964C70.0677 11.7785 70.7706 10.4151 72.5463 10.4151C74.4699 10.4151 75.1728 11.9679 75.1728 14.1266V17.3459L69.5868 19.4289C66.8123 20.4893 64.5187 21.8149 64.5187 25.072C64.5187 28.1018 66.5163 29.9576 69.5128 29.9576C72.1763 29.9576 74.1 28.2912 75.2838 26.7005C75.6537 28.7835 76.9855 30.0333 78.9832 30.0333C80.7219 30.0333 82.1276 29.3137 83.2004 28.0261L82.9785 27.1929C82.5716 27.3822 82.0536 27.5716 81.4987 27.5716C80.5369 27.5716 80.2779 26.7384 80.2779 25.4507V15.4143Z" fill="#010023"/>
<path d="M91.2064 0H90.3925L83.8447 1.81791V2.61324L86.0643 3.78731V27.0917C86.0643 28.4173 85.4724 28.6445 83.7707 28.7581V30.0079H93.5V28.7581C91.7983 28.6445 91.2064 28.4173 91.2064 27.0917V0Z" fill="#010023"/>
</svg>
